<?xml version="1.0" encoding="UTF-8"?>
<!-- Our Story — founder & child building the little town (polished). Placeholder; final art by illustrator. -->
<svg xmlns="http://www.w3.org/2000/svg" viewBox="0 0 480 380" role="img"
     aria-label="Illustration of a parent and child playing with little wooden town buildings.">
  <rect x="16" y="32" width="448" height="316" rx="26" fill="#fbfffe"/>
  <circle cx="392" cy="104" r="46" fill="#fdefd4" opacity="0.5"/>
  <circle cx="392" cy="104" r="30" fill="#f9e8c6"/>
  <!-- clouds -->
  <g fill="#ffffff" opacity="0.9"><circle cx="96" cy="92" r="16"/><circle cx="116" cy="98" r="13"/><circle cx="78" cy="100" r="11"/></g>
  <!-- floor -->
  <rect x="16" y="286" width="448" height="62" rx="0" fill="#eee1cb"/>
  <rect x="16" y="286" width="448" height="62" fill="#e1d3b8" opacity="0.3"/>
  <path d="M16 286 H464" stroke="#d7c7aa" stroke-width="4"/>
  <ellipse cx="240" cy="312" rx="200" ry="20" fill="#e8efdf" opacity="0.5"/>

  <!-- adult figure (seated) -->
  <g transform="translate(150,150)">
    <ellipse cx="0" cy="136" rx="56" ry="12" fill="#849473" opacity="0.14"/>
    <path d="M-40 136 v-34 a40 40 0 0 1 80 0 v34 Z" fill="#8fada8"/>
    <path d="M-40 136 v-34 a40 40 0 0 1 40 -40 v74 Z" fill="#7e9c96" opacity="0.35"/>
    <path d="M34 70 q40 8 50 40" fill="none" stroke="#8fada8" stroke-width="17" stroke-linecap="round"/>
    <circle cx="86" cy="112" r="9" fill="#e8cea3"/>
    <circle cx="0" cy="32" r="30" fill="#e8cea3"/>
    <path d="M-28 28 a28 28 0 0 1 56 0 q-28 -22 -56 0Z" fill="#c39861"/>
    <circle cx="-9" cy="34" r="2.4" fill="#3a322a"/><circle cx="9" cy="34" r="2.4" fill="#3a322a"/>
    <circle cx="-15" cy="40" r="3.2" fill="#e5b5a1" opacity="0.55"/><circle cx="15" cy="40" r="3.2" fill="#e5b5a1" opacity="0.55"/>
    <path d="M-8 42 q8 6 16 0" fill="none" stroke="#3a322a" stroke-width="2.2" stroke-linecap="round"/>
  </g>

  <!-- child figure -->
  <g transform="translate(258,196)">
    <ellipse cx="0" cy="86" rx="34" ry="8" fill="#849473" opacity="0.14"/>
    <ellipse cx="-10" cy="84" rx="8" ry="4.5" fill="#7e4732"/><ellipse cx="11" cy="84" rx="8" ry="4.5" fill="#7e4732"/>
    <rect x="-13" y="56" width="11" height="28" rx="5.5" fill="#c89975"/><rect x="3" y="56" width="11" height="28" rx="5.5" fill="#c89975"/>
    <path d="M-22 24 Q0 16 22 24 L18 58 Q0 62 -18 58 Z" fill="#a8b695"/>
    <path d="M-30 26 q-10 8 -8 22" stroke="#a8b695" stroke-width="11" fill="none" stroke-linecap="round"/>
    <path d="M22 24 q14 4 20 -8" fill="none" stroke="#a8b695" stroke-width="11" stroke-linecap="round"/>
    <circle cx="-36" cy="44" r="6" fill="#c89975"/><circle cx="42" cy="14" r="6" fill="#c89975"/>
    <circle cx="0" cy="0" r="20" fill="#c89975"/>
    <path d="M-18 -2 a18 18 0 0 1 36 0 q-18 -15 -36 0Z" fill="#7e4732"/>
    <circle cx="-6" cy="2" r="2.2" fill="#221e19"/><circle cx="6" cy="2" r="2.2" fill="#221e19"/>
    <circle cx="-11" cy="7" r="3" fill="#a7735c" opacity="0.6"/><circle cx="11" cy="7" r="3" fill="#a7735c" opacity="0.6"/>
    <path d="M-6 8 q6 5 12 0" fill="none" stroke="#221e19" stroke-width="2" stroke-linecap="round"/>
  </g>

  <!-- little town blocks on the floor -->
  <g>
    <ellipse cx="320" cy="288" rx="40" ry="7" fill="#849473" opacity="0.14"/>
    <rect x="300" y="250" width="42" height="36" rx="5" fill="#e8cea3"/><rect x="330" y="250" width="12" height="36" rx="5" fill="#d0ae7b" opacity="0.55"/>
    <rect x="300" y="250" width="42" height="36" rx="5" fill="none" stroke="#cba46c" stroke-width="2"/>
    <polygon points="296,250 321,228 346,250" fill="#c39861"/><polygon points="321,228 346,250 333,250" fill="#b38955"/>
    <line x1="321" y1="228" x2="321" y2="216" stroke="#77603f" stroke-width="2.4"/><path d="M321 218 L335 223 L321 228 Z" fill="#be574f"/>
    <path d="M313 286 v-16 a8 8 0 0 1 16 0 v16 Z" fill="#a55d42"/>
  </g>
  <g>
    <rect x="350" y="256" width="34" height="30" rx="5" fill="#e5f0ed"/><rect x="350" y="256" width="34" height="30" rx="5" fill="none" stroke="#8fada8" stroke-width="2"/>
    <polygon points="346,256 367,238 388,256" fill="#8fada8"/><polygon points="367,238 388,256 376,256" fill="#7a9893"/>
  </g>
  <!-- bush -->
  <ellipse cx="74" cy="284" rx="26" ry="6" fill="#849473" opacity="0.12"/>
  <circle cx="66" cy="272" r="16" fill="#a8b695"/><circle cx="84" cy="276" r="12" fill="#95a582"/>
</svg>
