<svg xmlns="http://www.w3.org/2000/svg" viewBox="0 0 24 24" role="img" aria-label="">
  <!-- left sock -->
  <path d="M7 3 H11 V12 q0 1 -1 2 l-3 3 q-2 2 0 4 q2 2 4 0 l5 -5 q1 -1 1 -2 V12 q0 -1 -1 -1 H12 V3 Z" fill="#E09972" stroke="#8A5A2C" stroke-width="1.4" stroke-linejoin="round"/>
  <!-- cuff band -->
  <line x1="7.3" y1="5.6" x2="11" y2="5.6" stroke="#8A5A2C" stroke-width="1" opacity="0.6"/>
  <!-- stripe -->
  <line x1="14.2" y1="8.5" x2="16" y2="8.5" stroke="#FBF5EA" stroke-width="1.5"/>
  <!-- second sock peek -->
  <path d="M17 4 H20 V10 q0 0.7 -0.6 1.2 l-2 2 q-1.4 1.4 0 2.8 q1.4 1.4 2.8 0 l3 -3 q0.7 -0.7 0.7 -1.5 V10 q0 -0.7 -0.7 -0.7 H21 V4 Z" fill="#E7BC76" stroke="#8A5A2C" stroke-width="1.3" stroke-linejoin="round" opacity="0.85"/>
</svg>
