<svg xmlns="http://www.w3.org/2000/svg" viewBox="0 0 24 24" role="img" aria-label="">
  <!-- straps -->
  <path d="M9 4 q3 -2 6 0" fill="none" stroke="#8A5A2C" stroke-width="1.6" stroke-linecap="round"/>
  <!-- back body -->
  <path d="M5 7 H19 V20 a2 2 0 0 1 -2 2 H7 a2 2 0 0 1 -2 -2 Z" fill="#E09972" stroke="#8A5A2C" stroke-width="1.5" stroke-linejoin="round"/>
  <!-- front pocket panel -->
  <path d="M8 12 H16 V19 a1 1 0 0 1 -1 1 H9 a1 1 0 0 1 -1 -1 Z" fill="#E7BC76" stroke="#8A5A2C" stroke-width="1.3" stroke-linejoin="round"/>
  <!-- buckle -->
  <rect x="10.5" y="14.5" width="3" height="1.5" rx="0.3" fill="#FBF5EA" stroke="#8A5A2C" stroke-width="1"/>
  <!-- top handle -->
  <path d="M10 5 q2 -1 4 0 v2 h-4 Z" fill="#A8472A" stroke="#8A5A2C" stroke-width="1.2" stroke-linejoin="round"/>
  <!-- name tag -->
  <rect x="14.6" y="8.5" width="2.6" height="2" rx="0.4" fill="#FBF5EA" stroke="#8A5A2C" stroke-width="0.9"/>
</svg>
