<svg xmlns="http://www.w3.org/2000/svg" viewBox="0 0 24 24" role="img" aria-label="">
  <!-- big four-point sparkle -->
  <path d="M12 2 q1.6 8 10 10 q-8.4 2 -10 10 q-1.6 -8 -10 -10 q8.4 -2 10 -10 Z" fill="#E7BC76" stroke="#8A5A2C" stroke-width="1.3" stroke-linejoin="round"/>
  <!-- inner shine -->
  <path d="M12 6 q1 4 5 5 q-4 1 -5 5 q-1 -4 -5 -5 q4 -1 5 -5 Z" fill="#FBF5EA" opacity="0.7"/>
  <!-- small sparkle top-right -->
  <path d="M20 4 q0.6 2 2.4 2.4 q-1.8 0.4 -2.4 2.4 q-0.6 -2 -2.4 -2.4 q1.8 -0.4 2.4 -2.4 Z" fill="#E09972"/>
  <!-- small sparkle bottom-left -->
  <path d="M4 18 q0.6 2 2.4 2.4 q-1.8 0.4 -2.4 2.4 q-0.6 -2 -2.4 -2.4 q1.8 -0.4 2.4 -2.4 Z" fill="#ABBE83"/>
</svg>
